# xmcd
#
# Track frame offsets:
#	150
#	15420
#	36746
#	52611
#	70794
#	79789
#	94908
#	117435
#	135570
#	155698
#	172783
#	192681
#
# Disc length: 2881 seconds
#
# Revision: 2
# Processed by: cddbd v1.5.1PL0 Copyright (c) Steve Scherf et al.
# Submitted via: audiograbber 1.83.01
#
DISCID=9b0b3f0c
DTITLE=Ariel Edler - From Here To There
DYEAR=2004
DGENRE=Contemporary Christian
TTITLE0=I Wanna Sing
TTITLE1=Can't Live A Day
TTITLE2=There Is A Reason
TTITLE3=It's Real
TTITLE4=So Many Needs
TTITLE5=Alpha and Omega
TTITLE6=Song of Solomon (1:2-5)
TTITLE7=The Rock
TTITLE8=In The Garden
TTITLE9=O, Forgiving Savior
TTITLE10=My Sin (Nailed To The Cross)
TTITLE11=Mercy Said, No!
EXTD=
EXTT0=
EXTT1=
EXTT2=
EXTT3=
EXTT4=
EXTT5=
EXTT6=
EXTT7=
EXTT8=
EXTT9=
EXTT10=
EXTT11=
PLAYORDER=
